# xmcd CD database file
#
# Track frame offsets:
#	150
#	11496
#	24761
#	42942
#	53639
#	66848
#	78242
#	88437
#	98288
#	109660
#	120278
#	131314
#	144291
#	155235
#
# Disc length: 2199 seconds
#
# Revision: 3
# Processed by: cddbd v1.5.2PL0 Copyright (c) Steve Scherf et al.
# Submitted via: CDex 1.70beta2
#
DISCID=a108950e
DTITLE=John Lee Hooker - Past Perfect, Disc Nine: Boom Boom
DYEAR=2001
DGENRE=Blues
TTITLE0=Boom Boom
TTITLE1=I Want to Hug You
TTITLE2=House Rent Boogie
TTITLE3=Wand Ad Blues
TTITLE4=I'm So Excited
TTITLE5=Hard Headed Woman
TTITLE6=I Wanna Walk
TTITLE7=Onions
TTITLE8=What Do You Say
TTITLE9=Keep Your Hand to Yourself
TTITLE10=Send Me Your Pillow
TTITLE11=She Shot Me down
TTITLE12=I Want to Shout
TTITLE13=I'm Leaving
EXTD=YEAR: 2001
EXTT0=
EXTT1=
EXTT2=
EXTT3=
EXTT4=
EXTT5=
EXTT6=
EXTT7=
EXTT8=
EXTT9=
EXTT10=
EXTT11=
EXTT12=
EXTT13=
PLAYORDER=
